<svg width="295" height="70" viewBox="0 0 295 70" fill="none" xmlns="http://www.w3.org/2000/svg">
    <path d="M70.08 1.03197L45.696 48.36V69H24.384V48.36L0 1.03197H24.384L35.232 25.128L46.08 1.03197H70.08Z" fill="white"/>
    <path d="M161.487 52.872H182.031V69H140.175V1.03197H161.487V52.872Z" fill="white"/>
    <path d="M210.049 52.872H230.594V69H188.738V1.03197H210.049V52.872Z" fill="white"/>
    <path d="M271.476 69L258.708 44.616H258.612V69H237.3V1.03197H268.98C274.484 1.03197 279.188 2.02397 283.092 4.00797C286.996 5.92797 289.908 8.58397 291.828 11.976C293.812 15.304 294.804 19.08 294.804 23.304C294.804 27.848 293.524 31.88 290.964 35.4C288.468 38.92 284.852 41.448 280.116 42.984L294.9 69H271.476ZM258.612 30.408H267.06C269.108 30.408 270.644 29.96 271.668 29.064C272.692 28.104 273.204 26.632 273.204 24.648C273.204 22.856 272.66 21.448 271.572 20.424C270.548 19.4 269.044 18.888 267.06 18.888H258.612V30.408Z" fill="white"/>
    <path d="M132.03 0.131183C131.829 0.240853 130.458 1.3924 128.996 2.69016C126.802 4.6094 126.309 5.13948 126.309 5.52332C126.309 6.10823 126.62 6.45552 127.131 6.45552C127.479 6.45552 132.98 1.79452 133.328 1.20961C133.529 0.844042 133.2 0.131183 132.743 0.0215122C132.56 -0.0333232 132.231 0.0215122 132.03 0.131183Z" fill="white"/>
    <path d="M77.1399 4.99323C72.0402 6.25444 68.0555 10.1843 66.6847 15.3205C66.1546 17.3312 66.1546 20.5847 66.6847 22.5588C68.019 27.5488 71.8392 31.369 76.9023 32.813C78.9312 33.3979 82.2945 33.3979 84.3416 32.813C89.3865 31.369 93.225 27.4574 94.5045 22.4491C94.9797 20.6396 95.0163 17.3312 94.5958 15.6861C93.225 10.3123 89.2951 6.34583 84.0126 4.99323C82.1117 4.51799 79.0774 4.51799 77.1399 4.99323Z" fill="white"/>
    <path d="M135.448 6.40071C134.991 6.65661 133.584 7.53398 132.304 8.31995C130.22 9.59944 129.965 9.81878 129.965 10.2757C129.965 10.8607 130.257 11.2079 130.787 11.2079C130.988 11.1897 132.505 10.3489 134.169 9.32526C136.837 7.66192 137.185 7.38775 137.239 6.91251C137.294 6.56522 137.203 6.30932 136.984 6.14481C136.527 5.8158 136.38 5.83408 135.448 6.40071Z" fill="white"/>
    <path d="M117.681 6.76635C117.426 7.05881 116.585 8.22863 115.835 9.39845C114.007 12.1951 112.289 14.2422 110.187 16.0884C107.336 18.5925 107.007 18.7936 105.471 19.0495C103.077 19.4333 101.249 20.5666 100.244 22.2848C99.9879 22.7052 99.5127 23.217 99.1837 23.418C95.9667 25.319 96.8989 32.0272 100.701 34.4582C101.158 34.7324 101.67 34.97 101.834 34.97C102.017 34.97 102.218 35.0614 102.273 35.1711C102.492 35.5183 104.74 42.9028 104.649 42.976C104.503 43.1222 100.902 41.7879 96.0581 39.8138C87.5037 36.3043 86.8823 36.1581 79.3333 35.6829C75.6593 35.4635 73.7766 35.6646 71.0349 36.5785C67.4706 37.7849 64.2536 40.3621 62.9741 43.0308C62.1881 44.6941 62.0419 45.6446 61.8774 49.6841C61.6763 55.3322 61.2376 65.367 61.1279 67.3777L61 69.3335H94.1023L94.2119 67.8164C94.2668 66.9938 94.3947 63.923 94.5044 61.0168C94.6141 58.0922 94.742 55.5332 94.7786 55.3322L94.87 54.9483L96.5516 55.2591C97.4838 55.4236 99.6041 55.9902 101.267 56.502C107.117 58.3116 111.156 59.061 113.861 58.8599C117.097 58.604 119.052 57.2149 119.82 54.6376C120.186 53.4312 120.167 50.1959 119.802 48.3864C119.637 47.5821 118.815 44.6758 117.956 41.9158C117.097 39.1558 116.274 36.4688 116.128 35.9753C115.982 35.4635 115.616 34.2937 115.305 33.3615C115.013 32.4293 114.793 31.5519 114.848 31.424C114.976 31.0767 117.535 30.9487 119.802 31.1498C120.807 31.2412 122.891 31.625 124.39 31.9723C128.1 32.868 128.776 32.74 129.636 31.0584C131.08 28.2252 129.8 21.5902 126.492 14.7723C124.536 10.7511 121.959 7.38782 120.24 6.58357C119.217 6.10833 118.248 6.18144 117.681 6.76635ZM120.643 8.77698C122.525 10.5134 124.207 13.1638 125.943 17.1485C127.716 21.2429 128.685 24.9534 128.703 27.7317C128.722 29.5779 128.356 30.8573 127.753 31.0401C127.058 31.2595 124.609 28.737 123.128 26.2877L122.47 25.191L123.092 24.5513C124.28 23.3266 124.7 21.8461 124.298 20.3472C123.805 18.5011 122.47 17.5324 120.515 17.642L119.345 17.6969L119.089 16.7829C118.705 15.4486 118.084 11.665 118.084 10.6962C118.102 9.6909 118.394 8.30174 118.668 7.97273C119.034 7.53405 119.528 7.73511 120.643 8.77698Z" fill="white"/>
    <path d="M137.916 13.1455C137.02 13.4928 135.704 13.9863 134.991 14.2422C133.419 14.8271 132.981 15.2109 133.145 15.869C133.383 16.8012 133.693 16.7646 137.824 15.1561C140.877 13.968 141.407 13.5293 140.639 12.7799C140.237 12.3595 139.762 12.4326 137.916 13.1455Z" fill="white"/>
    <path d="M137.824 19.9268C136.362 20.1827 135.064 20.4751 134.955 20.5665C134.827 20.6762 134.717 20.9869 134.717 21.2794C134.717 22.1933 135.119 22.2481 138.409 21.6998C140.036 21.4439 141.553 21.1514 141.772 21.0783C142.284 20.8772 142.485 20.2923 142.211 19.7988C141.955 19.3236 141.224 19.3418 137.824 19.9268Z" fill="white"/>
    <path d="M139.012 26.2878C137.386 26.4157 135.887 26.562 135.668 26.6351C135.046 26.8361 134.936 27.6404 135.448 28.0608C135.814 28.3532 136.07 28.3898 136.984 28.2984C137.605 28.2436 139.159 28.1156 140.456 28.0425C142.942 27.878 143.308 27.7318 143.308 26.9092C143.308 26.5437 142.632 25.9953 142.211 26.0319C142.065 26.0502 140.621 26.1598 139.012 26.2878Z" fill="white"/>
</svg>
