<svg width="296" height="96" viewBox="0 0 296 96" fill="none" xmlns="http://www.w3.org/2000/svg">
<path d="M70.08 1.03197L45.696 48.36V69H24.384V48.36L0 1.03197H24.384L35.232 25.128L46.08 1.03197H70.08Z" fill="white"/>
<path d="M161.487 52.872H182.031V69H140.175V1.03197H161.487V52.872Z" fill="white"/>
<path d="M210.049 52.872H230.594V69H188.738V1.03197H210.049V52.872Z" fill="white"/>
<path d="M271.476 69L258.708 44.616H258.612V69H237.3V1.03197H268.98C274.484 1.03197 279.188 2.02397 283.092 4.00797C286.996 5.92797 289.908 8.58397 291.828 11.976C293.812 15.304 294.804 19.08 294.804 23.304C294.804 27.848 293.524 31.88 290.964 35.4C288.468 38.92 284.852 41.448 280.116 42.984L294.9 69H271.476ZM258.612 30.408H267.06C269.108 30.408 270.644 29.96 271.668 29.064C272.692 28.104 273.204 26.632 273.204 24.648C273.204 22.856 272.66 21.448 271.572 20.424C270.548 19.4 269.044 18.888 267.06 18.888H258.612V30.408Z" fill="white"/>
<path d="M132.03 0.131183C131.829 0.240853 130.458 1.3924 128.996 2.69016C126.802 4.6094 126.309 5.13948 126.309 5.52332C126.309 6.10823 126.62 6.45552 127.131 6.45552C127.479 6.45552 132.98 1.79452 133.328 1.20961C133.529 0.844042 133.2 0.131183 132.743 0.0215122C132.56 -0.0333232 132.231 0.0215122 132.03 0.131183Z" fill="white"/>
<path d="M77.1399 4.99323C72.0402 6.25444 68.0555 10.1843 66.6847 15.3205C66.1546 17.3312 66.1546 20.5847 66.6847 22.5588C68.019 27.5488 71.8392 31.369 76.9023 32.813C78.9312 33.3979 82.2945 33.3979 84.3416 32.813C89.3865 31.369 93.225 27.4574 94.5045 22.4491C94.9797 20.6396 95.0163 17.3312 94.5958 15.6861C93.225 10.3123 89.2951 6.34583 84.0126 4.99323C82.1117 4.51799 79.0774 4.51799 77.1399 4.99323Z" fill="white"/>
<path d="M135.448 6.40071C134.991 6.65661 133.584 7.53398 132.304 8.31995C130.22 9.59944 129.965 9.81878 129.965 10.2757C129.965 10.8607 130.257 11.2079 130.787 11.2079C130.988 11.1897 132.505 10.3489 134.169 9.32526C136.837 7.66192 137.185 7.38775 137.239 6.91251C137.294 6.56522 137.203 6.30932 136.984 6.14481C136.527 5.8158 136.38 5.83408 135.448 6.40071Z" fill="white"/>
<path d="M117.681 6.76635C117.426 7.05881 116.585 8.22863 115.835 9.39845C114.007 12.1951 112.289 14.2422 110.187 16.0884C107.336 18.5925 107.007 18.7936 105.471 19.0495C103.077 19.4333 101.249 20.5666 100.244 22.2848C99.9879 22.7052 99.5127 23.217 99.1837 23.418C95.9667 25.319 96.8989 32.0272 100.701 34.4582C101.158 34.7324 101.67 34.97 101.834 34.97C102.017 34.97 102.218 35.0614 102.273 35.1711C102.492 35.5183 104.74 42.9028 104.649 42.976C104.503 43.1222 100.902 41.7879 96.0581 39.8138C87.5037 36.3043 86.8823 36.1581 79.3333 35.6829C75.6593 35.4635 73.7766 35.6646 71.0349 36.5785C67.4706 37.7849 64.2536 40.3621 62.9741 43.0308C62.1881 44.6941 62.0419 45.6446 61.8774 49.6841C61.6763 55.3322 61.2376 65.367 61.1279 67.3777L61 69.3335H94.1023L94.2119 67.8164C94.2668 66.9938 94.3947 63.923 94.5044 61.0168C94.6141 58.0922 94.742 55.5332 94.7786 55.3322L94.87 54.9483L96.5516 55.2591C97.4838 55.4236 99.6041 55.9902 101.267 56.502C107.117 58.3116 111.156 59.061 113.861 58.8599C117.097 58.604 119.052 57.2149 119.82 54.6376C120.186 53.4312 120.167 50.1959 119.802 48.3864C119.637 47.5821 118.815 44.6758 117.956 41.9158C117.097 39.1558 116.274 36.4688 116.128 35.9753C115.982 35.4635 115.616 34.2937 115.305 33.3615C115.013 32.4293 114.793 31.5519 114.848 31.424C114.976 31.0767 117.535 30.9487 119.802 31.1498C120.807 31.2412 122.891 31.625 124.39 31.9723C128.1 32.868 128.776 32.74 129.636 31.0584C131.08 28.2252 129.8 21.5902 126.492 14.7723C124.536 10.7511 121.959 7.38782 120.24 6.58357C119.217 6.10833 118.248 6.18144 117.681 6.76635ZM120.643 8.77698C122.525 10.5134 124.207 13.1638 125.943 17.1485C127.716 21.2429 128.685 24.9534 128.703 27.7317C128.722 29.5779 128.356 30.8573 127.753 31.0401C127.058 31.2595 124.609 28.737 123.128 26.2877L122.47 25.191L123.092 24.5513C124.28 23.3266 124.7 21.8461 124.298 20.3472C123.805 18.5011 122.47 17.5324 120.515 17.642L119.345 17.6969L119.089 16.7829C118.705 15.4486 118.084 11.665 118.084 10.6962C118.102 9.6909 118.394 8.30174 118.668 7.97273C119.034 7.53405 119.528 7.73511 120.643 8.77698Z" fill="white"/>
<path d="M137.916 13.1455C137.02 13.4928 135.704 13.9863 134.991 14.2422C133.419 14.8271 132.981 15.2109 133.145 15.869C133.383 16.8012 133.693 16.7646 137.824 15.1561C140.877 13.968 141.407 13.5293 140.639 12.7799C140.237 12.3595 139.762 12.4326 137.916 13.1455Z" fill="white"/>
<path d="M137.824 19.9268C136.362 20.1827 135.064 20.4751 134.955 20.5665C134.827 20.6762 134.717 20.9869 134.717 21.2794C134.717 22.1933 135.119 22.2481 138.409 21.6998C140.036 21.4439 141.553 21.1514 141.772 21.0783C142.284 20.8772 142.485 20.2923 142.211 19.7988C141.955 19.3236 141.224 19.3418 137.824 19.9268Z" fill="white"/>
<path d="M139.012 26.2878C137.386 26.4157 135.887 26.562 135.668 26.6351C135.046 26.8361 134.936 27.6404 135.448 28.0608C135.814 28.3532 136.07 28.3898 136.984 28.2984C137.605 28.2436 139.159 28.1156 140.456 28.0425C142.942 27.878 143.308 27.7318 143.308 26.9092C143.308 26.5437 142.632 25.9953 142.211 26.0319C142.065 26.0502 140.621 26.1598 139.012 26.2878Z" fill="white"/>
<path d="M13.364 82.874L10.985 92H8.294L6.838 85.994L5.33 92H2.639L0.325 82.874H2.704L4.017 89.517L5.642 82.874H8.086L9.646 89.517L10.972 82.874H13.364Z" fill="white"/>
<path d="M18.9379 84.668C19.7699 84.668 20.4372 84.9453 20.9399 85.5C21.4425 86.046 21.6939 86.8 21.6939 87.762V92H19.4839V88.061C19.4839 87.5756 19.3582 87.1986 19.1069 86.93C18.8555 86.6613 18.5175 86.527 18.0929 86.527C17.6682 86.527 17.3302 86.6613 17.0789 86.93C16.8275 87.1986 16.7019 87.5756 16.7019 88.061V92H14.4789V82.38H16.7019V85.721C16.9272 85.4003 17.2349 85.1446 17.6249 84.954C18.0149 84.7633 18.4525 84.668 18.9379 84.668Z" fill="white"/>
<path d="M30.0766 88.256C30.0766 88.464 30.0636 88.6806 30.0376 88.906H25.0066C25.0413 89.3566 25.1843 89.7033 25.4356 89.946C25.6956 90.18 26.012 90.297 26.3846 90.297C26.9393 90.297 27.3249 90.063 27.5416 89.595H29.9076C29.7863 90.0716 29.5653 90.5006 29.2446 90.882C28.9326 91.2633 28.5383 91.5623 28.0616 91.779C27.585 91.9956 27.052 92.104 26.4626 92.104C25.752 92.104 25.1193 91.9523 24.5646 91.649C24.01 91.3456 23.5766 90.9123 23.2646 90.349C22.9526 89.7856 22.7966 89.127 22.7966 88.373C22.7966 87.619 22.9483 86.9603 23.2516 86.397C23.5636 85.8336 23.997 85.4003 24.5516 85.097C25.1063 84.7936 25.7433 84.642 26.4626 84.642C27.1646 84.642 27.7886 84.7893 28.3346 85.084C28.8806 85.3786 29.3053 85.799 29.6086 86.345C29.9206 86.891 30.0766 87.528 30.0766 88.256ZM27.8016 87.671C27.8016 87.2896 27.6716 86.9863 27.4116 86.761C27.1516 86.5356 26.8266 86.423 26.4366 86.423C26.064 86.423 25.7476 86.5313 25.4876 86.748C25.2363 86.9646 25.0803 87.2723 25.0196 87.671H27.8016Z" fill="white"/>
<path d="M33.4724 85.955C33.7324 85.5563 34.0574 85.2443 34.4474 85.019C34.8374 84.785 35.2707 84.668 35.7474 84.668V87.021H35.1364C34.5817 87.021 34.1657 87.1423 33.8884 87.385C33.611 87.619 33.4724 88.035 33.4724 88.633V92H31.2494V84.746H33.4724V85.955Z" fill="white"/>
<path d="M43.6479 88.256C43.6479 88.464 43.6349 88.6806 43.6089 88.906H38.5779C38.6126 89.3566 38.7556 89.7033 39.0069 89.946C39.2669 90.18 39.5832 90.297 39.9559 90.297C40.5106 90.297 40.8962 90.063 41.1129 89.595H43.4789C43.3576 90.0716 43.1366 90.5006 42.8159 90.882C42.5039 91.2633 42.1096 91.5623 41.6329 91.779C41.1562 91.9956 40.6232 92.104 40.0339 92.104C39.3232 92.104 38.6906 91.9523 38.1359 91.649C37.5812 91.3456 37.1479 90.9123 36.8359 90.349C36.5239 89.7856 36.3679 89.127 36.3679 88.373C36.3679 87.619 36.5196 86.9603 36.8229 86.397C37.1349 85.8336 37.5682 85.4003 38.1229 85.097C38.6776 84.7936 39.3146 84.642 40.0339 84.642C40.7359 84.642 41.3599 84.7893 41.9059 85.084C42.4519 85.3786 42.8766 85.799 43.1799 86.345C43.4919 86.891 43.6479 87.528 43.6479 88.256ZM41.3729 87.671C41.3729 87.2896 41.2429 86.9863 40.9829 86.761C40.7229 86.5356 40.3979 86.423 40.0079 86.423C39.6352 86.423 39.3189 86.5313 39.0589 86.748C38.8076 86.9646 38.6516 87.2723 38.5909 87.671H41.3729Z" fill="white"/>
<path d="M49.7985 84.655V86.501H52.7755V88.217H49.7985V90.219H53.1655V92H47.5755V82.874H53.1655V84.655H49.7985Z" fill="white"/>
<path d="M57.8717 89.92L59.4447 84.746H61.8107L59.2367 92H56.4937L53.9197 84.746H56.2987L57.8717 89.92Z" fill="white"/>
<path d="M69.5844 88.256C69.5844 88.464 69.5714 88.6806 69.5454 88.906H64.5144C64.5491 89.3566 64.6921 89.7033 64.9434 89.946C65.2034 90.18 65.5198 90.297 65.8924 90.297C66.4471 90.297 66.8328 90.063 67.0494 89.595H69.4154C69.2941 90.0716 69.0731 90.5006 68.7524 90.882C68.4404 91.2633 68.0461 91.5623 67.5694 91.779C67.0928 91.9956 66.5598 92.104 65.9704 92.104C65.2598 92.104 64.6271 91.9523 64.0724 91.649C63.5178 91.3456 63.0844 90.9123 62.7724 90.349C62.4604 89.7856 62.3044 89.127 62.3044 88.373C62.3044 87.619 62.4561 86.9603 62.7594 86.397C63.0714 85.8336 63.5048 85.4003 64.0594 85.097C64.6141 84.7936 65.2511 84.642 65.9704 84.642C66.6724 84.642 67.2964 84.7893 67.8424 85.084C68.3884 85.3786 68.8131 85.799 69.1164 86.345C69.4284 86.891 69.5844 87.528 69.5844 88.256ZM67.3094 87.671C67.3094 87.2896 67.1794 86.9863 66.9194 86.761C66.6594 86.5356 66.3344 86.423 65.9444 86.423C65.5718 86.423 65.2554 86.5313 64.9954 86.748C64.7441 86.9646 64.5881 87.2723 64.5274 87.671H67.3094Z" fill="white"/>
<path d="M72.9802 85.955C73.2402 85.5563 73.5652 85.2443 73.9552 85.019C74.3452 84.785 74.7785 84.668 75.2552 84.668V87.021H74.6442C74.0895 87.021 73.6735 87.1423 73.3962 87.385C73.1188 87.619 72.9802 88.035 72.9802 88.633V92H70.7572V84.746H72.9802V85.955Z" fill="white"/>
<path d="M83.7277 84.746L79.1777 95.445H76.7857L78.4497 91.753L75.4987 84.746H77.9817L79.6587 89.283L81.3227 84.746H83.7277Z" fill="white"/>
<path d="M87.8336 92.104C87.1229 92.104 86.4816 91.9523 85.9096 91.649C85.3463 91.3456 84.8999 90.9123 84.5706 90.349C84.2499 89.7856 84.0896 89.127 84.0896 88.373C84.0896 87.6276 84.2543 86.9733 84.5836 86.41C84.9129 85.838 85.3636 85.4003 85.9356 85.097C86.5076 84.7936 87.1489 84.642 87.8596 84.642C88.5703 84.642 89.2116 84.7936 89.7836 85.097C90.3556 85.4003 90.8063 85.838 91.1356 86.41C91.4649 86.9733 91.6296 87.6276 91.6296 88.373C91.6296 89.1183 91.4606 89.777 91.1226 90.349C90.7933 90.9123 90.3383 91.3456 89.7576 91.649C89.1856 91.9523 88.5443 92.104 87.8336 92.104ZM87.8336 90.18C88.2583 90.18 88.6179 90.024 88.9126 89.712C89.2159 89.4 89.3676 88.9536 89.3676 88.373C89.3676 87.7923 89.2202 87.346 88.9256 87.034C88.6396 86.722 88.2843 86.566 87.8596 86.566C87.4263 86.566 87.0666 86.722 86.7806 87.034C86.4946 87.3373 86.3516 87.7836 86.3516 88.373C86.3516 88.9536 86.4903 89.4 86.7676 89.712C87.0536 90.024 87.4089 90.18 87.8336 90.18Z" fill="white"/>
<path d="M97.2289 84.668C98.0783 84.668 98.7543 84.9453 99.2569 85.5C99.7683 86.046 100.024 86.8 100.024 87.762V92H97.8139V88.061C97.8139 87.5756 97.6883 87.1986 97.4369 86.93C97.1856 86.6613 96.8476 86.527 96.4229 86.527C95.9983 86.527 95.6603 86.6613 95.4089 86.93C95.1576 87.1986 95.0319 87.5756 95.0319 88.061V92H92.8089V84.746H95.0319V85.708C95.2573 85.3873 95.5606 85.136 95.9419 84.954C96.3233 84.7633 96.7523 84.668 97.2289 84.668Z" fill="white"/>
<path d="M108.407 88.256C108.407 88.464 108.394 88.6806 108.368 88.906H103.337C103.371 89.3566 103.514 89.7033 103.766 89.946C104.026 90.18 104.342 90.297 104.715 90.297C105.269 90.297 105.655 90.063 105.872 89.595H108.238C108.116 90.0716 107.895 90.5006 107.575 90.882C107.263 91.2633 106.868 91.5623 106.392 91.779C105.915 91.9956 105.382 92.104 104.793 92.104C104.082 92.104 103.449 91.9523 102.895 91.649C102.34 91.3456 101.907 90.9123 101.595 90.349C101.283 89.7856 101.127 89.127 101.127 88.373C101.127 87.619 101.278 86.9603 101.582 86.397C101.894 85.8336 102.327 85.4003 102.882 85.097C103.436 84.7936 104.073 84.642 104.793 84.642C105.495 84.642 106.119 84.7893 106.665 85.084C107.211 85.3786 107.635 85.799 107.939 86.345C108.251 86.891 108.407 87.528 108.407 88.256ZM106.132 87.671C106.132 87.2896 106.002 86.9863 105.742 86.761C105.482 86.5356 105.157 86.423 104.767 86.423C104.394 86.423 104.078 86.5313 103.818 86.748C103.566 86.9646 103.41 87.2723 103.35 87.671H106.132Z" fill="white"/>
<path d="M110.086 82.874H112.361L110.905 86.358H109.41L110.086 82.874Z" fill="white"/>
<path d="M116.618 92.104C115.986 92.104 115.422 91.9956 114.928 91.779C114.434 91.5623 114.044 91.2676 113.758 90.895C113.472 90.5136 113.312 90.089 113.277 89.621H115.474C115.5 89.8723 115.617 90.076 115.825 90.232C116.033 90.388 116.289 90.466 116.592 90.466C116.87 90.466 117.082 90.414 117.229 90.31C117.385 90.1973 117.463 90.0543 117.463 89.881C117.463 89.673 117.355 89.5213 117.138 89.426C116.922 89.322 116.571 89.2093 116.085 89.088C115.565 88.9666 115.132 88.841 114.785 88.711C114.439 88.5723 114.14 88.36 113.888 88.074C113.637 87.7793 113.511 87.385 113.511 86.891C113.511 86.475 113.624 86.098 113.849 85.76C114.083 85.4133 114.421 85.1403 114.863 84.941C115.314 84.7416 115.847 84.642 116.462 84.642C117.372 84.642 118.087 84.8673 118.607 85.318C119.136 85.7686 119.439 86.3666 119.517 87.112H117.463C117.429 86.8606 117.316 86.6613 117.125 86.514C116.943 86.3666 116.701 86.293 116.397 86.293C116.137 86.293 115.938 86.345 115.799 86.449C115.661 86.5443 115.591 86.6786 115.591 86.852C115.591 87.06 115.7 87.216 115.916 87.32C116.142 87.424 116.488 87.528 116.956 87.632C117.494 87.7706 117.931 87.9093 118.269 88.048C118.607 88.178 118.902 88.3946 119.153 88.698C119.413 88.9926 119.548 89.3913 119.556 89.894C119.556 90.3186 119.435 90.7 119.192 91.038C118.958 91.3673 118.616 91.6273 118.165 91.818C117.723 92.0086 117.208 92.104 116.618 92.104Z" fill="white"/>
<path d="M125.894 90.284H128.806V92H123.671V82.874H125.894V90.284Z" fill="white"/>
<path d="M133.169 92.104C132.458 92.104 131.817 91.9523 131.245 91.649C130.681 91.3456 130.235 90.9123 129.906 90.349C129.585 89.7856 129.425 89.127 129.425 88.373C129.425 87.6276 129.589 86.9733 129.919 86.41C130.248 85.838 130.699 85.4003 131.271 85.097C131.843 84.7936 132.484 84.642 133.195 84.642C133.905 84.642 134.547 84.7936 135.119 85.097C135.691 85.4003 136.141 85.838 136.471 86.41C136.8 86.9733 136.965 87.6276 136.965 88.373C136.965 89.1183 136.796 89.777 136.458 90.349C136.128 90.9123 135.673 91.3456 135.093 91.649C134.521 91.9523 133.879 92.104 133.169 92.104ZM133.169 90.18C133.593 90.18 133.953 90.024 134.248 89.712C134.551 89.4 134.703 88.9536 134.703 88.373C134.703 87.7923 134.555 87.346 134.261 87.034C133.975 86.722 133.619 86.566 133.195 86.566C132.761 86.566 132.402 86.722 132.116 87.034C131.83 87.3373 131.687 87.7836 131.687 88.373C131.687 88.9536 131.825 89.4 132.103 89.712C132.389 90.024 132.744 90.18 133.169 90.18Z" fill="white"/>
<path d="M145.307 84.746V92H143.084V91.012C142.859 91.3326 142.551 91.5926 142.161 91.792C141.78 91.9826 141.355 92.078 140.887 92.078C140.332 92.078 139.843 91.9566 139.418 91.714C138.993 91.4626 138.664 91.103 138.43 90.635C138.196 90.167 138.079 89.6166 138.079 88.984V84.746H140.289V88.685C140.289 89.1703 140.415 89.5473 140.666 89.816C140.917 90.0846 141.255 90.219 141.68 90.219C142.113 90.219 142.456 90.0846 142.707 89.816C142.958 89.5473 143.084 89.1703 143.084 88.685V84.746H145.307Z" fill="white"/>
<path d="M146.462 88.36C146.462 87.6146 146.6 86.9603 146.878 86.397C147.164 85.8336 147.549 85.4003 148.035 85.097C148.52 84.7936 149.062 84.642 149.66 84.642C150.136 84.642 150.57 84.7416 150.96 84.941C151.358 85.1403 151.67 85.409 151.896 85.747V82.38H154.119V92H151.896V90.96C151.688 91.3066 151.389 91.584 150.999 91.792C150.617 92 150.171 92.104 149.66 92.104C149.062 92.104 148.52 91.9523 148.035 91.649C147.549 91.337 147.164 90.8993 146.878 90.336C146.6 89.764 146.462 89.1053 146.462 88.36ZM151.896 88.373C151.896 87.8183 151.74 87.3806 151.428 87.06C151.124 86.7393 150.752 86.579 150.31 86.579C149.868 86.579 149.491 86.7393 149.179 87.06C148.875 87.372 148.724 87.8053 148.724 88.36C148.724 88.9146 148.875 89.3566 149.179 89.686C149.491 90.0066 149.868 90.167 150.31 90.167C150.752 90.167 151.124 90.0066 151.428 89.686C151.74 89.3653 151.896 88.9276 151.896 88.373Z" fill="white"/>
<path d="M159.871 92.091C159.602 92.091 159.377 92 159.195 91.818C159.013 91.636 158.922 91.4106 158.922 91.142C158.922 90.8733 159.013 90.648 159.195 90.466C159.377 90.284 159.602 90.193 159.871 90.193C160.131 90.193 160.352 90.284 160.534 90.466C160.716 90.648 160.807 90.8733 160.807 91.142C160.807 91.4106 160.716 91.636 160.534 91.818C160.352 92 160.131 92.091 159.871 92.091Z" fill="white"/>
<path d="M163.007 92.091C162.738 92.091 162.513 92 162.331 91.818C162.149 91.636 162.058 91.4106 162.058 91.142C162.058 90.8733 162.149 90.648 162.331 90.466C162.513 90.284 162.738 90.193 163.007 90.193C163.267 90.193 163.488 90.284 163.67 90.466C163.852 90.648 163.943 90.8733 163.943 91.142C163.943 91.4106 163.852 91.636 163.67 91.818C163.488 92 163.267 92.091 163.007 92.091Z" fill="white"/>
<path d="M166.142 92.091C165.874 92.091 165.648 92 165.466 91.818C165.284 91.636 165.193 91.4106 165.193 91.142C165.193 90.8733 165.284 90.648 165.466 90.466C165.648 90.284 165.874 90.193 166.142 90.193C166.402 90.193 166.623 90.284 166.805 90.466C166.987 90.648 167.078 90.8733 167.078 91.142C167.078 91.4106 166.987 91.636 166.805 91.818C166.623 92 166.402 92.091 166.142 92.091Z" fill="white"/>
<path d="M168.186 88.386C168.186 87.6666 168.333 87.0296 168.628 86.475C168.931 85.9203 169.339 85.4913 169.85 85.188C170.37 84.876 170.942 84.72 171.566 84.72C172.129 84.72 172.619 84.8326 173.035 85.058C173.46 85.2746 173.798 85.5476 174.049 85.877V84.837H175.544V92H174.049V90.934C173.798 91.272 173.455 91.5536 173.022 91.779C172.589 92.0043 172.095 92.117 171.54 92.117C170.925 92.117 170.361 91.961 169.85 91.649C169.339 91.3283 168.931 90.8863 168.628 90.323C168.333 89.751 168.186 89.1053 168.186 88.386ZM174.049 88.412C174.049 87.918 173.945 87.489 173.737 87.125C173.538 86.761 173.273 86.4836 172.944 86.293C172.615 86.1023 172.259 86.007 171.878 86.007C171.497 86.007 171.141 86.1023 170.812 86.293C170.483 86.475 170.214 86.748 170.006 87.112C169.807 87.4673 169.707 87.892 169.707 88.386C169.707 88.88 169.807 89.3133 170.006 89.686C170.214 90.0586 170.483 90.3446 170.812 90.544C171.15 90.7346 171.505 90.83 171.878 90.83C172.259 90.83 172.615 90.7346 172.944 90.544C173.273 90.3533 173.538 90.076 173.737 89.712C173.945 89.3393 174.049 88.906 174.049 88.412Z" fill="white"/>
<path d="M181.105 84.72C181.668 84.72 182.171 84.837 182.613 85.071C183.063 85.305 183.414 85.6516 183.666 86.111C183.917 86.5703 184.043 87.125 184.043 87.775V92H182.574V87.996C182.574 87.3546 182.413 86.865 182.093 86.527C181.772 86.1803 181.334 86.007 180.78 86.007C180.225 86.007 179.783 86.1803 179.454 86.527C179.133 86.865 178.973 87.3546 178.973 87.996V92H177.491V84.837H178.973V85.656C179.215 85.3613 179.523 85.1316 179.896 84.967C180.277 84.8023 180.68 84.72 181.105 84.72Z" fill="white"/>
<path d="M185.439 88.386C185.439 87.6666 185.586 87.0296 185.881 86.475C186.184 85.9203 186.592 85.4913 187.103 85.188C187.623 84.876 188.199 84.72 188.832 84.72C189.3 84.72 189.759 84.824 190.21 85.032C190.669 85.2313 191.033 85.5 191.302 85.838V82.38H192.797V92H191.302V90.921C191.059 91.2676 190.721 91.5536 190.288 91.779C189.863 92.0043 189.374 92.117 188.819 92.117C188.195 92.117 187.623 91.961 187.103 91.649C186.592 91.3283 186.184 90.8863 185.881 90.323C185.586 89.751 185.439 89.1053 185.439 88.386ZM191.302 88.412C191.302 87.918 191.198 87.489 190.99 87.125C190.791 86.761 190.526 86.4836 190.197 86.293C189.868 86.1023 189.512 86.007 189.131 86.007C188.75 86.007 188.394 86.1023 188.065 86.293C187.736 86.475 187.467 86.748 187.259 87.112C187.06 87.4673 186.96 87.892 186.96 88.386C186.96 88.88 187.06 89.3133 187.259 89.686C187.467 90.0586 187.736 90.3446 188.065 90.544C188.403 90.7346 188.758 90.83 189.131 90.83C189.512 90.83 189.868 90.7346 190.197 90.544C190.526 90.3533 190.791 90.076 190.99 89.712C191.198 89.3393 191.302 88.906 191.302 88.412Z" fill="white"/>
<path d="M201.735 84.72C202.298 84.72 202.801 84.837 203.243 85.071C203.693 85.305 204.044 85.6516 204.296 86.111C204.547 86.5703 204.673 87.125 204.673 87.775V92H203.204V87.996C203.204 87.3546 203.043 86.865 202.723 86.527C202.402 86.1803 201.964 86.007 201.41 86.007C200.855 86.007 200.413 86.1803 200.084 86.527C199.763 86.865 199.603 87.3546 199.603 87.996V92H198.121V84.837H199.603V85.656C199.845 85.3613 200.153 85.1316 200.526 84.967C200.907 84.8023 201.31 84.72 201.735 84.72Z" fill="white"/>
<path d="M209.67 92.117C208.994 92.117 208.383 91.9653 207.837 91.662C207.291 91.35 206.862 90.9166 206.55 90.362C206.238 89.7986 206.082 89.1486 206.082 88.412C206.082 87.684 206.242 87.0383 206.563 86.475C206.884 85.9116 207.321 85.4783 207.876 85.175C208.431 84.8716 209.05 84.72 209.735 84.72C210.42 84.72 211.039 84.8716 211.594 85.175C212.149 85.4783 212.586 85.9116 212.907 86.475C213.228 87.0383 213.388 87.684 213.388 88.412C213.388 89.14 213.223 89.7856 212.894 90.349C212.565 90.9123 212.114 91.35 211.542 91.662C210.979 91.9653 210.355 92.117 209.67 92.117ZM209.67 90.83C210.051 90.83 210.407 90.739 210.736 90.557C211.074 90.375 211.347 90.102 211.555 89.738C211.763 89.374 211.867 88.932 211.867 88.412C211.867 87.892 211.767 87.4543 211.568 87.099C211.369 86.735 211.104 86.462 210.775 86.28C210.446 86.098 210.09 86.007 209.709 86.007C209.328 86.007 208.972 86.098 208.643 86.28C208.322 86.462 208.067 86.735 207.876 87.099C207.685 87.4543 207.59 87.892 207.59 88.412C207.59 89.1833 207.785 89.7813 208.175 90.206C208.574 90.622 209.072 90.83 209.67 90.83Z" fill="white"/>
<path d="M216.335 85.903C216.586 85.5563 216.929 85.2746 217.362 85.058C217.804 84.8326 218.294 84.72 218.831 84.72C219.464 84.72 220.036 84.8716 220.547 85.175C221.058 85.4783 221.461 85.9116 221.756 86.475C222.051 87.0296 222.198 87.6666 222.198 88.386C222.198 89.1053 222.051 89.751 221.756 90.323C221.461 90.8863 221.054 91.3283 220.534 91.649C220.023 91.961 219.455 92.117 218.831 92.117C218.276 92.117 217.782 92.0086 217.349 91.792C216.924 91.5753 216.586 91.298 216.335 90.96V92H214.853V82.38H216.335V85.903ZM220.69 88.386C220.69 87.892 220.586 87.4673 220.378 87.112C220.179 86.748 219.91 86.475 219.572 86.293C219.243 86.1023 218.887 86.007 218.506 86.007C218.133 86.007 217.778 86.1023 217.44 86.293C217.111 86.4836 216.842 86.761 216.634 87.125C216.435 87.489 216.335 87.918 216.335 88.412C216.335 88.906 216.435 89.3393 216.634 89.712C216.842 90.076 217.111 90.3533 217.44 90.544C217.778 90.7346 218.133 90.83 218.506 90.83C218.887 90.83 219.243 90.7346 219.572 90.544C219.91 90.3446 220.179 90.0586 220.378 89.686C220.586 89.3133 220.69 88.88 220.69 88.386Z" fill="white"/>
<path d="M226.77 92.117C226.094 92.117 225.483 91.9653 224.937 91.662C224.391 91.35 223.962 90.9166 223.65 90.362C223.338 89.7986 223.182 89.1486 223.182 88.412C223.182 87.684 223.343 87.0383 223.663 86.475C223.984 85.9116 224.422 85.4783 224.976 85.175C225.531 84.8716 226.151 84.72 226.835 84.72C227.52 84.72 228.14 84.8716 228.694 85.175C229.249 85.4783 229.687 85.9116 230.007 86.475C230.328 87.0383 230.488 87.684 230.488 88.412C230.488 89.14 230.324 89.7856 229.994 90.349C229.665 90.9123 229.214 91.35 228.642 91.662C228.079 91.9653 227.455 92.117 226.77 92.117ZM226.77 90.83C227.152 90.83 227.507 90.739 227.836 90.557C228.174 90.375 228.447 90.102 228.655 89.738C228.863 89.374 228.967 88.932 228.967 88.412C228.967 87.892 228.868 87.4543 228.668 87.099C228.469 86.735 228.205 86.462 227.875 86.28C227.546 86.098 227.191 86.007 226.809 86.007C226.428 86.007 226.073 86.098 225.743 86.28C225.423 86.462 225.167 86.735 224.976 87.099C224.786 87.4543 224.69 87.892 224.69 88.412C224.69 89.1833 224.885 89.7813 225.275 90.206C225.674 90.622 226.172 90.83 226.77 90.83Z" fill="white"/>
<path d="M231.46 88.386C231.46 87.6666 231.607 87.0296 231.902 86.475C232.205 85.9203 232.612 85.4913 233.124 85.188C233.644 84.876 234.22 84.72 234.853 84.72C235.321 84.72 235.78 84.824 236.231 85.032C236.69 85.2313 237.054 85.5 237.323 85.838V82.38H238.818V92H237.323V90.921C237.08 91.2676 236.742 91.5536 236.309 91.779C235.884 92.0043 235.394 92.117 234.84 92.117C234.216 92.117 233.644 91.961 233.124 91.649C232.612 91.3283 232.205 90.8863 231.902 90.323C231.607 89.751 231.46 89.1053 231.46 88.386ZM237.323 88.412C237.323 87.918 237.219 87.489 237.011 87.125C236.811 86.761 236.547 86.4836 236.218 86.293C235.888 86.1023 235.533 86.007 235.152 86.007C234.77 86.007 234.415 86.1023 234.086 86.293C233.756 86.475 233.488 86.748 233.28 87.112C233.08 87.4673 232.981 87.892 232.981 88.386C232.981 88.88 233.08 89.3133 233.28 89.686C233.488 90.0586 233.756 90.3446 234.086 90.544C234.424 90.7346 234.779 90.83 235.152 90.83C235.533 90.83 235.888 90.7346 236.218 90.544C236.547 90.3533 236.811 90.076 237.011 89.712C237.219 89.3393 237.323 88.906 237.323 88.412Z" fill="white"/>
<path d="M247.212 84.837L242.818 95.367H241.284L242.74 91.883L239.919 84.837H241.57L243.585 90.297L245.678 84.837H247.212Z" fill="white"/>
<path d="M253.189 82.38V92H251.707V82.38H253.189Z" fill="white"/>
<path d="M255.889 83.888C255.62 83.888 255.395 83.797 255.213 83.615C255.031 83.433 254.94 83.2076 254.94 82.939C254.94 82.6703 255.031 82.445 255.213 82.263C255.395 82.081 255.62 81.99 255.889 81.99C256.149 81.99 256.37 82.081 256.552 82.263C256.734 82.445 256.825 82.6703 256.825 82.939C256.825 83.2076 256.734 83.433 256.552 83.615C256.37 83.797 256.149 83.888 255.889 83.888ZM256.617 84.837V92H255.135V84.837H256.617Z" fill="white"/>
<path d="M261.163 92.117C260.6 92.117 260.093 92.0173 259.642 91.818C259.2 91.61 258.849 91.3326 258.589 90.986C258.329 90.6306 258.19 90.2363 258.173 89.803H259.707C259.733 90.1063 259.876 90.362 260.136 90.57C260.405 90.7693 260.738 90.869 261.137 90.869C261.553 90.869 261.874 90.791 262.099 90.635C262.333 90.4703 262.45 90.2623 262.45 90.011C262.45 89.7423 262.32 89.543 262.06 89.413C261.809 89.283 261.406 89.14 260.851 88.984C260.314 88.8366 259.876 88.6936 259.538 88.555C259.2 88.4163 258.905 88.204 258.654 87.918C258.411 87.632 258.29 87.255 258.29 86.787C258.29 86.4056 258.403 86.059 258.628 85.747C258.853 85.4263 259.174 85.175 259.59 84.993C260.015 84.811 260.5 84.72 261.046 84.72C261.861 84.72 262.515 84.928 263.009 85.344C263.512 85.7513 263.78 86.3103 263.815 87.021H262.333C262.307 86.7003 262.177 86.4446 261.943 86.254C261.709 86.0633 261.393 85.968 260.994 85.968C260.604 85.968 260.305 86.0416 260.097 86.189C259.889 86.3363 259.785 86.5313 259.785 86.774C259.785 86.9646 259.854 87.125 259.993 87.255C260.132 87.385 260.301 87.489 260.5 87.567C260.699 87.6363 260.994 87.7273 261.384 87.84C261.904 87.9786 262.329 88.1216 262.658 88.269C262.996 88.4076 263.286 88.6156 263.529 88.893C263.772 89.1703 263.897 89.5386 263.906 89.998C263.906 90.4053 263.793 90.7693 263.568 91.09C263.343 91.4106 263.022 91.662 262.606 91.844C262.199 92.026 261.718 92.117 261.163 92.117Z" fill="white"/>
<path d="M267.236 86.046V90.011C267.236 90.2796 267.297 90.4746 267.418 90.596C267.548 90.7086 267.765 90.765 268.068 90.765H268.978V92H267.808C267.141 92 266.63 91.844 266.274 91.532C265.919 91.22 265.741 90.713 265.741 90.011V86.046H264.896V84.837H265.741V83.056H267.236V84.837H268.978V86.046H267.236Z" fill="white"/>
<path d="M276.909 88.243C276.909 88.5116 276.892 88.7543 276.857 88.971H271.384C271.427 89.543 271.64 90.0023 272.021 90.349C272.402 90.6956 272.87 90.869 273.425 90.869C274.222 90.869 274.786 90.5353 275.115 89.868H276.714C276.497 90.5266 276.103 91.0683 275.531 91.493C274.968 91.909 274.266 92.117 273.425 92.117C272.74 92.117 272.125 91.9653 271.579 91.662C271.042 91.35 270.617 90.9166 270.305 90.362C270.002 89.7986 269.85 89.1486 269.85 88.412C269.85 87.6753 269.997 87.0296 270.292 86.475C270.595 85.9116 271.016 85.4783 271.553 85.175C272.099 84.8716 272.723 84.72 273.425 84.72C274.101 84.72 274.703 84.8673 275.232 85.162C275.761 85.4566 276.172 85.8726 276.467 86.41C276.762 86.9386 276.909 87.5496 276.909 88.243ZM275.362 87.775C275.353 87.229 275.158 86.7913 274.777 86.462C274.396 86.1326 273.923 85.968 273.36 85.968C272.849 85.968 272.411 86.1326 272.047 86.462C271.683 86.7826 271.466 87.2203 271.397 87.775H275.362Z" fill="white"/>
<path d="M281.982 84.72C282.545 84.72 283.048 84.837 283.49 85.071C283.94 85.305 284.291 85.6516 284.543 86.111C284.794 86.5703 284.92 87.125 284.92 87.775V92H283.451V87.996C283.451 87.3546 283.29 86.865 282.97 86.527C282.649 86.1803 282.211 86.007 281.657 86.007C281.102 86.007 280.66 86.1803 280.331 86.527C280.01 86.865 279.85 87.3546 279.85 87.996V92H278.368V84.837H279.85V85.656C280.092 85.3613 280.4 85.1316 280.773 84.967C281.154 84.8023 281.557 84.72 281.982 84.72Z" fill="white"/>
<path d="M289.41 92.117C288.847 92.117 288.34 92.0173 287.889 91.818C287.447 91.61 287.096 91.3326 286.836 90.986C286.576 90.6306 286.437 90.2363 286.42 89.803H287.954C287.98 90.1063 288.123 90.362 288.383 90.57C288.652 90.7693 288.985 90.869 289.384 90.869C289.8 90.869 290.121 90.791 290.346 90.635C290.58 90.4703 290.697 90.2623 290.697 90.011C290.697 89.7423 290.567 89.543 290.307 89.413C290.056 89.283 289.653 89.14 289.098 88.984C288.561 88.8366 288.123 88.6936 287.785 88.555C287.447 88.4163 287.152 88.204 286.901 87.918C286.658 87.632 286.537 87.255 286.537 86.787C286.537 86.4056 286.65 86.059 286.875 85.747C287.1 85.4263 287.421 85.175 287.837 84.993C288.262 84.811 288.747 84.72 289.293 84.72C290.108 84.72 290.762 84.928 291.256 85.344C291.759 85.7513 292.027 86.3103 292.062 87.021H290.58C290.554 86.7003 290.424 86.4446 290.19 86.254C289.956 86.0633 289.64 85.968 289.241 85.968C288.851 85.968 288.552 86.0416 288.344 86.189C288.136 86.3363 288.032 86.5313 288.032 86.774C288.032 86.9646 288.101 87.125 288.24 87.255C288.379 87.385 288.548 87.489 288.747 87.567C288.946 87.6363 289.241 87.7273 289.631 87.84C290.151 87.9786 290.576 88.1216 290.905 88.269C291.243 88.4076 291.533 88.6156 291.776 88.893C292.019 89.1703 292.144 89.5386 292.153 89.998C292.153 90.4053 292.04 90.7693 291.815 91.09C291.59 91.4106 291.269 91.662 290.853 91.844C290.446 92.026 289.965 92.117 289.41 92.117Z" fill="white"/>
<path d="M294.352 92.091C294.084 92.091 293.858 92 293.676 91.818C293.494 91.636 293.403 91.4106 293.403 91.142C293.403 90.8733 293.494 90.648 293.676 90.466C293.858 90.284 294.084 90.193 294.352 90.193C294.612 90.193 294.833 90.284 295.015 90.466C295.197 90.648 295.288 90.8733 295.288 91.142C295.288 91.4106 295.197 91.636 295.015 91.818C294.833 92 294.612 92.091 294.352 92.091Z" fill="white"/>
</svg>
