<svg width="295" height="69" viewBox="0 57.7447 295 68.5103" fill="none" xmlns="http://www.w3.org/2000/svg">
<mask id="mask0_60_22" style="mask-type:alpha" maskUnits="userSpaceOnUse" x="0" y="58" width="295" height="69">
<path d="M70.08 58.032L45.696 105.36V126H24.384V105.36L0 58.032H24.384L35.232 82.128L46.08 58.032H70.08Z" fill="white"/>
<path d="M161.487 109.872H182.031V126H140.175V58.032H161.487V109.872Z" fill="white"/>
<path d="M210.049 109.872H230.594V126H188.738V58.032H210.049V109.872Z" fill="white"/>
<path d="M271.476 126L258.708 101.616H258.612V126H237.3V58.032H268.98C274.484 58.032 279.188 59.024 283.092 61.008C286.996 62.928 289.908 65.584 291.828 68.976C293.812 72.304 294.804 76.08 294.804 80.304C294.804 84.848 293.524 88.88 290.964 92.4C288.468 95.92 284.852 98.448 280.116 99.984L294.9 126H271.476ZM258.612 87.408H267.06C269.108 87.408 270.644 86.96 271.668 86.064C272.692 85.104 273.204 83.632 273.204 81.648C273.204 79.856 272.66 78.448 271.572 77.424C270.548 76.4 269.044 75.888 267.06 75.888H258.612V87.408Z" fill="white"/>
<path d="M132.03 58.1293C131.829 58.2374 130.458 59.3723 128.996 60.6514C126.802 62.5429 126.309 63.0654 126.309 63.4437C126.309 64.0202 126.62 64.3624 127.131 64.3624C127.479 64.3624 132.98 59.7687 133.328 59.1922C133.529 58.8319 133.2 58.1293 132.743 58.0212C132.56 57.9672 132.231 58.0212 132.03 58.1293Z" fill="white"/>
<path d="M77.1399 62.9212C72.0403 64.1642 68.0555 68.0374 66.6847 73.0996C66.1546 75.0812 66.1546 78.2879 66.6847 80.2335C68.019 85.1515 71.8392 88.9166 76.9023 90.3398C78.9312 90.9162 82.2945 90.9162 84.3416 90.3398C89.3865 88.9166 93.225 85.0614 94.5045 80.1254C94.9797 78.3419 95.0163 75.0812 94.5958 73.4599C93.225 68.1635 89.2951 64.2543 84.0126 62.9212C82.1117 62.4528 79.0775 62.4528 77.1399 62.9212Z" fill="white"/>
<path d="M135.448 64.3084C134.991 64.5606 133.584 65.4253 132.304 66.2C130.22 67.461 129.965 67.6772 129.965 68.1276C129.965 68.704 130.257 69.0463 130.787 69.0463C130.988 69.0283 132.505 68.1996 134.169 67.1908C136.837 65.5514 137.185 65.2812 137.239 64.8128C137.294 64.4705 137.203 64.2183 136.983 64.0562C136.527 63.7319 136.38 63.75 135.448 64.3084Z" fill="white"/>
<path d="M117.681 64.6688C117.426 64.957 116.585 66.11 115.835 67.2629C114.007 70.0192 112.289 72.0368 110.187 73.8563C107.336 76.3244 107.007 76.5225 105.471 76.7747C103.077 77.153 101.249 78.27 100.244 79.9634C99.9879 80.3777 99.5127 80.8821 99.1837 81.0803C95.9667 82.9538 96.8989 89.5653 100.701 91.9612C101.158 92.2314 101.67 92.4656 101.834 92.4656C102.017 92.4656 102.218 92.5557 102.273 92.6638C102.492 93.0061 104.74 100.284 104.649 100.356C104.503 100.5 100.902 99.1852 96.0581 97.2396C87.5037 93.7807 86.8823 93.6366 79.3333 93.1682C75.6593 92.952 73.7766 93.1502 71.0349 94.0509C67.4706 95.2399 64.2536 97.78 62.9741 100.41C62.1881 102.05 62.0419 102.986 61.8774 106.968C61.6763 112.534 61.2376 122.424 61.1279 124.406L61 126.333H94.1023L94.2119 124.838C94.2668 124.028 94.3947 121.001 94.5044 118.137C94.6141 115.254 94.742 112.732 94.7786 112.534L94.87 112.156L96.5516 112.462C97.4838 112.624 99.6041 113.183 101.267 113.687C107.117 115.471 111.156 116.209 113.861 116.011C117.097 115.759 119.052 114.39 119.82 111.85C120.186 110.661 120.167 107.472 119.802 105.689C119.637 104.896 118.815 102.032 117.956 99.3113C117.097 96.591 116.274 93.9429 116.128 93.4565C115.982 92.952 115.616 91.7991 115.305 90.8803C115.013 89.9616 114.793 89.0969 114.848 88.9708C114.976 88.6285 117.535 88.5024 119.802 88.7005C120.807 88.7906 122.891 89.1689 124.39 89.5112C128.1 90.3939 128.776 90.2678 129.636 88.6105C131.08 85.8182 129.8 79.2788 126.492 72.5593C124.536 68.596 121.959 65.2813 120.24 64.4886C119.217 64.0202 118.248 64.0923 117.681 64.6688ZM120.643 66.6504C122.525 68.3618 124.207 70.974 125.943 74.9012C127.716 78.9365 128.685 82.5935 128.703 85.3318C128.722 87.1513 128.356 88.4123 127.753 88.5925C127.058 88.8086 124.609 86.3226 123.128 83.9086L122.47 82.8277L123.092 82.1972C124.28 80.9902 124.7 79.531 124.298 78.0538C123.805 76.2343 122.47 75.2795 120.515 75.3876L119.345 75.4416L119.089 74.5409C118.705 73.2258 118.084 69.4968 118.084 68.542C118.102 67.5512 118.394 66.182 118.668 65.8578C119.034 65.4254 119.528 65.6236 120.643 66.6504Z" fill="white"/>
<path d="M137.916 70.9559C137.02 71.2982 135.704 71.7846 134.991 72.0368C133.419 72.6133 132.981 72.9916 133.145 73.6401C133.383 74.5589 133.693 74.5228 137.824 72.9375C140.877 71.7666 141.407 71.3342 140.639 70.5956C140.237 70.1813 139.762 70.2533 137.916 70.9559Z" fill="white"/>
<path d="M137.824 77.6394C136.362 77.8916 135.064 78.1798 134.955 78.2699C134.827 78.378 134.717 78.6842 134.717 78.9725C134.717 79.8732 135.119 79.9273 138.409 79.3868C140.036 79.1346 141.553 78.8464 141.772 78.7743C142.284 78.5761 142.485 77.9997 142.211 77.5133C141.955 77.0449 141.224 77.0629 137.824 77.6394Z" fill="white"/>
<path d="M139.012 83.9086C137.386 84.0347 135.887 84.1789 135.668 84.2509C135.046 84.4491 134.936 85.2417 135.448 85.6561C135.814 85.9443 136.07 85.9803 136.984 85.8903C137.605 85.8362 139.159 85.7101 140.456 85.6381C142.942 85.4759 143.308 85.3318 143.308 84.5211C143.308 84.1609 142.632 83.6204 142.211 83.6564C142.065 83.6745 140.621 83.7825 139.012 83.9086Z" fill="white"/>
</mask>
<g mask="url(#mask0_60_22)">
    <path d="M0 57.7447H295V126.255H0V57.7447Z" fill="#6D2380"/>
    <path d="M0 57.7447H295V115.489H0V57.7447Z" fill="#2C58A4"/>
    <path d="M0 57.7447H295V103.745H0V57.7447Z" fill="#78B82A"/>
    <path d="M0 57.7447H295V92H0V57.7447Z" fill="#EFE524"/>
    <path d="M0 57.7447H295V80.2553H0V57.7447Z" fill="#F28917"/>
    <path d="M0 57.7447H295V68.5106H0V57.7447Z" fill="#E22016"/>
    <!-- <path d="M29.0396 57.7447H0V126.255H29.0396L61.5825 92L29.0396 57.7447Z" fill="black"/>
    <path d="M22.1645 57.7447H0V126.255H22.1645L54.6296 92L22.1645 57.7447Z" fill="#945516"/>
    <path d="M15.3737 57.7447H0V126.255H15.3737L47.6768 92L15.3737 57.7447Z" fill="#7BCCE5"/>
    <path d="M8.63565 57.7447H0V126.255H8.63565L40.7239 92L8.63565 57.7447Z" fill="#F4AEC8"/>
    <path d="M0 57.7447V126.255H2.04496L34.7643 92L2.04496 57.7447H0Z" fill="white"/>
    <path d="M0 122.34L27.8114 92.5352L0 62.6383V122.34Z" fill="#FDD817"/> -->
</g>
</svg>
